<svg width="272" height="47" viewBox="0 0 272 47" xmlns="http://www.w3.org/2000/svg"><title>Logo White</title><g fill="#FFF" fill-rule="evenodd"><path d="M31.079 38.296c-.67-.523-1.378-1.086-2.12-1.685-.302-1.366-.636-2.82-.99-4.33.47-.76.937-1.529 1.397-2.298-.408.082-.82.16-1.237.237-.587-.765-1.19-1.545-1.802-2.338-.527-.262-1.057-.528-1.59-.794a1183.93 1183.93 0 0 1-3.74-1.336 630.557 630.557 0 0 1-2.946-4.694 532.909 532.909 0 0 1-1.624-3.168c.055-1.42.123-2.79.206-4.083l-2.144-3.612a84.618 84.618 0 0 0-2.567-.984c-.585.443-1.141.913-1.646 1.405-.922.832-1.693 1.735-2.23 2.687a12.35 12.35 0 0 1 1.338-2.4c-.302.047-.586.1-.857.16A47.05 47.05 0 0 0 8.243 9.6c.339-.55.732-1.073 1.162-1.564-.393.07-.772.14-1.14.216.077-.378.165-.752.256-1.12.297-.08.599-.16.906-.234-.155-.242-.328-.507-.497-.766C4.036 10.294.92 16.49.92 23.422c0 12.537 10.162 22.7 22.702 22.7 1.502 0 2.968-.153 4.389-.431 1.015-1.703 2.08-4.31 3.068-7.395z"/><path d="M23.622.72a22.573 22.573 0 0 0-12.17 3.559c1.407.597 2.735.963 4.188 1.342a14.03 14.03 0 0 1 2.082-.994c1.168.284 2.418.574 3.771.96 2.693-.217 5.359-.273 7.876-.244.18.68.345 1.547.494 2.564a56.922 56.922 0 0 0-3.314.205 91.87 91.87 0 0 0-.622 1.369 52.67 52.67 0 0 1 3.628 3.365c.274-.009.544-.016.81-.02.089-1.372.154-2.631.188-3.756.687.065 1.352.14 2 .232.368.704.727 1.451 1.075 2.233.31-.125.61-.245.899-.357a44.387 44.387 0 0 1 2.325 5.595c-.747.246-1.628.559-2.625.934-.77.377-1.61.792-2.507 1.248-.685.996-1.423 2.056-2.193 3.15.008.56.013 1.121.018 1.689-.292.038-.584.075-.88.116-.218-.616-.434-1.23-.656-1.843-1.153.15-2.344.31-3.544.482-.266.75-.53 1.506-.799 2.266.311.446.624.893.937 1.338l1.33-1.068c.443.046.881.09 1.318.137-.215.625-.434 1.257-.653 1.887.524.033 1.044.066 1.555.095.169.66.337 1.314.499 1.961.34.111.675.218 1.006.324.251-.426.5-.85.745-1.274 1.618.136 3.114.248 4.399.33.854.75 1.605 1.44 2.234 2.056.08.574.154 1.139.225 1.693.786.388 1.374.683 1.757.878a29.325 29.325 0 0 1-1.082 4.718c-.427.325-.917.635-1.459.928-.128.56-.264 1.11-.406 1.645a22.6 22.6 0 0 1-4.365 3.934c-.098.12-.2.211-.3.327 8.7-3.182 14.918-11.504 14.918-21.303 0-12.537-10.164-22.7-22.702-22.7z"/><g transform="translate(61.73 32.695)"><ellipse cx="64.354" cy="3.29" rx="1.806" ry="1.62"/><ellipse cx="138.552" cy="3.29" rx="1.806" ry="1.62"/><path d="M4.692 6.186l-1.59-2.404c.804-.07 1.537-.654 1.537-1.714C4.64.98 3.862.292 2.784.292H.415v5.894h.734V3.844h1.184l1.493 2.342h.866zM2.695 3.199H1.15V.945h1.546c.698 0 1.184.451 1.184 1.123 0 .662-.486 1.13-1.184 1.13zm7.228 2.987v-.654H6.795V3.499h3.067v-.654H6.795v-1.9h3.128V.292H6.062v5.894h3.861zm6.477 0L14.032.292h-.91l-2.377 5.894h.84l.521-1.317h2.934l.521 1.317h.84zm-1.572-1.962h-2.501l1.246-3.181 1.255 3.18zm5.982 1.962v-.654h-2.74V.292h-.733v5.894h3.473zm4.533 0V3.844h1.635c1.175 0 1.847-.813 1.847-1.776 0-.963-.663-1.776-1.847-1.776H24.61v5.894h.733zm1.546-2.996h-1.546V.945h1.546c.698 0 1.176.46 1.176 1.123 0 .662-.478 1.122-1.176 1.122zm7.034 2.996v-.654h-3.128V3.499h3.066v-.654h-3.066v-1.9h3.128V.292h-3.861v5.894h3.861zm4.118.106c1.74 0 2.934-1.308 2.934-3.049 0-1.74-1.193-3.049-2.934-3.049-1.74 0-2.925 1.308-2.925 3.049 0 1.74 1.184 3.049 2.925 3.049zm0-.654c-1.326 0-2.165-1.025-2.165-2.395 0-1.379.84-2.395 2.165-2.395 1.317 0 2.174 1.016 2.174 2.395 0 1.37-.857 2.395-2.174 2.395zm5.072.548V3.844h1.635c1.175 0 1.847-.813 1.847-1.776 0-.963-.663-1.776-1.847-1.776H42.38v5.894h.733zm1.546-2.996h-1.546V.945h1.546c.698 0 1.176.46 1.176 1.123 0 .662-.478 1.122-1.176 1.122zm6.548 2.996v-.654h-2.74V.292h-.733v5.894h3.473zm5.108 0v-.654h-3.128V3.499h3.066v-.654h-3.066v-1.9h3.128V.292h-3.862v5.894h3.862zm21.03 0l-1.59-2.404c.804-.07 1.537-.654 1.537-1.714 0-1.087-.777-1.776-1.855-1.776h-2.368v5.894h.733V3.844h1.184l1.493 2.342h.866zm-1.997-2.987h-1.546V.945h1.546c.698 0 1.184.451 1.184 1.123 0 .662-.486 1.13-1.184 1.13zm7.229 2.987v-.654h-3.129V3.499h3.067v-.654h-3.067v-1.9h3.129V.292h-3.862v5.894h3.862zm6.477 0L86.686.292h-.91l-2.378 5.894h.84l.521-1.317h2.934l.521 1.317h.84zM87.48 4.224h-2.5l1.245-3.181 1.255 3.18zm5.982 1.962v-.654h-2.74V.292h-.733v5.894h3.473zm5.991 0V.946h1.874V.291h-4.472v.653h1.865v5.24h.733zm7.387 0l-1.59-2.404c.804-.07 1.537-.654 1.537-1.714 0-1.087-.777-1.776-1.855-1.776h-2.368v5.894h.733V3.844h1.184l1.493 2.342h.866zm-1.997-2.987h-1.546V.945h1.546c.698 0 1.184.451 1.184 1.123 0 .662-.486 1.13-1.184 1.13zm8.413 2.987L110.889.292h-.91L107.6 6.186h.84l.521-1.317h2.934l.521 1.317h.84zm-1.573-1.962h-2.5l1.245-3.181 1.255 3.18zm4.621 1.962c1.838 0 3.022-1.264 3.022-2.943 0-1.67-1.184-2.951-3.022-2.951h-2.014v5.894h2.014zm0-.654h-1.281V.945h1.281c1.458 0 2.262 1.026 2.262 2.298 0 1.264-.83 2.289-2.262 2.289zm8.298.654v-.654h-3.128V3.499h3.066v-.654h-3.066v-1.9h3.128V.292h-3.862v5.894h3.862zm3.34.106c1.59 0 2.174-.884 2.174-1.732 0-2.2-3.49-1.44-3.49-2.766 0-.557.512-.937 1.21-.937.645 0 1.263.212 1.705.707l.442-.539c-.495-.521-1.193-.83-2.085-.83-1.167 0-2.033.671-2.033 1.643 0 2.103 3.49 1.255 3.49 2.775 0 .46-.335 1.025-1.387 1.025a2.43 2.43 0 0 1-1.846-.849l-.442.566c.486.548 1.246.937 2.262.937zm23.134-.106l-1.59-2.404c.803-.07 1.537-.654 1.537-1.714 0-1.087-.778-1.776-1.856-1.776H146.8v5.894h.733V3.844h1.184l1.494 2.342h.866zm-1.997-2.987h-1.547V.945h1.547c.698 0 1.184.451 1.184 1.123 0 .662-.486 1.13-1.184 1.13zm7.228 2.987v-.654h-3.128V3.499h3.066v-.654h-3.066v-1.9h3.128V.292h-3.862v5.894h3.862zm6.477 0L160.417.292h-.91l-2.377 5.894h.84l.52-1.317h2.934l.521 1.317h.84zm-1.573-1.962h-2.5l1.245-3.181 1.255 3.18zm5.982 1.962v-.654h-2.739V.292h-.733v5.894h3.472zm8.077 0l-1.59-2.404c.803-.07 1.537-.654 1.537-1.714 0-1.087-.778-1.776-1.856-1.776h-2.368v5.894h.733V3.844h1.185l1.493 2.342h.866zm-1.997-2.987h-1.547V.945h1.547c.698 0 1.184.451 1.184 1.123 0 .662-.486 1.13-1.184 1.13zm7.228 2.987v-.654h-3.128V3.499h3.066v-.654h-3.066v-1.9h3.128V.292h-3.862v5.894h3.862zm3.623 0V.946h1.873V.291h-4.47v.653h1.864v5.24h.733zm5.514.106c1.6 0 2.412-.937 2.412-2.404V.292h-.742v3.587c0 1.078-.583 1.759-1.67 1.759s-1.661-.68-1.661-1.759V.292h-.743v3.605c0 1.449.813 2.395 2.404 2.395zm8.333-.106l-1.59-2.404c.803-.07 1.537-.654 1.537-1.714 0-1.087-.778-1.776-1.856-1.776h-2.368v5.894h.733V3.844h1.184l1.494 2.342h.866zm-1.997-2.987h-1.547V.945h1.547c.698 0 1.184.451 1.184 1.123 0 .662-.486 1.13-1.184 1.13zm8.244 2.987V.292h-.733v4.603L200.092.292h-.75v5.894h.733V1.485l3.437 4.7h.707zm3.552.106c1.59 0 2.174-.884 2.174-1.732 0-2.2-3.49-1.44-3.49-2.766 0-.557.512-.937 1.21-.937.645 0 1.264.212 1.706.707l.441-.539c-.494-.521-1.192-.83-2.085-.83-1.166 0-2.032.671-2.032 1.643 0 2.103 3.49 1.255 3.49 2.775 0 .46-.336 1.025-1.387 1.025-.83 0-1.467-.407-1.847-.849l-.442.566c.486.548 1.246.937 2.262.937z"/></g><path d="M72.014 23.65L76.12 9.24h-1.382l-3.479 12.683L67.737 9.24h-1.124L63.07 21.923 59.592 9.24h-1.383l4.127 14.41h1.382l3.457-12.38 3.457 12.38h1.382zm12.337.26c4.212 0 7-3.24 7-7.453s-2.788-7.454-7-7.454c-4.235 0-7 3.24-7 7.454 0 4.213 2.765 7.453 7 7.453zm0-1.123c-3.479 0-5.704-2.7-5.704-6.33 0-3.651 2.225-6.33 5.704-6.33 3.456 0 5.703 2.679 5.703 6.33 0 3.63-2.247 6.33-5.703 6.33zm19.984.864l-4.17-6.05c2.16-.086 3.997-1.533 3.997-4.147 0-2.636-1.901-4.213-4.386-4.213h-5.38v14.41h1.232v-5.963h3.176l4.04 5.963h1.49zm-4.667-7.086h-4.04v-6.2h4.04c1.923 0 3.198 1.274 3.198 3.089 0 1.814-1.275 3.11-3.198 3.11zm15.49 7.086v-1.123h-6.978V9.24h-1.253v14.41h8.231zm7.13 0c4.472 0 7.28-3.198 7.28-7.194 0-3.954-2.808-7.216-7.28-7.216h-4.602v14.41h4.602zm0-1.123h-3.37V10.364h3.37c3.824 0 5.984 2.722 5.984 6.093 0 3.37-2.182 6.07-5.984 6.07zm22.706 1.382c2.29 0 3.975-.994 5.272-2.57l-1.059-.649c-.907 1.253-2.484 2.096-4.213 2.096-3.37 0-6.006-2.614-6.006-6.33 0-3.76 2.636-6.33 6.006-6.33 1.729 0 3.306.842 4.213 2.095l1.037-.67c-1.21-1.533-2.96-2.549-5.25-2.549-4.083 0-7.302 3.025-7.302 7.454s3.219 7.453 7.302 7.453zm13.352 0c3.716 0 5.617-2.225 5.617-5.79V9.24h-1.253v8.86c0 2.916-1.534 4.688-4.364 4.688s-4.364-1.772-4.364-4.688V9.24h-1.253v8.88c0 3.542 1.922 5.79 5.617 5.79zm10.435-.26v-5.983h4.17c2.743 0 4.342-1.945 4.342-4.213 0-2.269-1.577-4.213-4.343-4.213h-5.4v14.41h1.23zm4.04-7.107h-4.04v-6.179h4.04c1.922 0 3.176 1.275 3.176 3.09 0 1.793-1.254 3.09-3.176 3.09zm24.52 7.108l-5.897-14.41h-1.534l-5.898 14.41h1.426l1.426-3.543h7.626l1.426 3.543h1.426zm-3.262-4.667h-6.805l3.414-8.425 3.391 8.425zm9.982 4.667c4.472 0 7.28-3.198 7.28-7.194 0-3.954-2.808-7.216-7.28-7.216h-4.602v14.41h4.602zm0-1.123h-3.37V10.364h3.37c3.824 0 5.984 2.722 5.984 6.093 0 3.37-2.182 6.07-5.984 6.07zm15.879 1.123l5.898-14.41h-1.426l-5.228 13.027-5.25-13.027h-1.426l5.898 14.41h1.534zm9.247 0V9.24h-1.232v14.41h1.232zm8.058.26c3.889 0 5.12-2.226 5.12-4.084 0-5.38-8.641-3.349-8.641-7.043 0-1.556 1.447-2.657 3.37-2.657 1.62 0 3.09.561 4.126 1.814l.821-.907c-1.102-1.275-2.744-2.03-4.882-2.03-2.614 0-4.732 1.49-4.732 3.845 0 5.034 8.642 2.83 8.642 7.064 0 1.232-.843 2.874-3.78 2.874-2.075 0-3.587-1.037-4.516-2.096l-.8.93c1.102 1.317 2.896 2.29 5.272 2.29zm14.54 0c4.213 0 7-3.241 7-7.454 0-4.213-2.787-7.454-7-7.454-4.235 0-7 3.24-7 7.454 0 4.213 2.765 7.453 7 7.453zm0-1.124c-3.478 0-5.704-2.7-5.704-6.33 0-3.651 2.226-6.33 5.704-6.33 3.457 0 5.703 2.679 5.703 6.33 0 3.63-2.246 6.33-5.703 6.33zm19.984.864l-4.17-6.05c2.16-.086 3.997-1.533 3.997-4.147 0-2.636-1.901-4.213-4.386-4.213h-5.38v14.41h1.232v-5.963h3.176l4.04 5.963h1.49zm-4.667-7.086h-4.04v-6.2h4.04c1.923 0 3.198 1.274 3.198 3.089 0 1.814-1.275 3.11-3.198 3.11z"/></g></svg>